/* XPM */
static char *_520949760642[] = {
/* columns rows colors chars-per-pixel */
"64 64 3 1 ",
"  c #4B5054",
". c #FF1361",
"X c None",
/* pixels */
"XXXXXXXXXXXXXXXXXXXXXXXXXXXX..........XXXXXXXXXXXXXXXXXXXXXXXXXX",
"XXXXXXXXXXXXXXXXXXXXXXXXXXXX..............XXXXXXXXXXXXXXXXXXXXXX",
"XXXXXXXXXXXXXXXXXXXXXXXXXXXX.................XXXXXXXXXXXXXXXXXXX",
"XXXXXXXXXXXXXXXXXXXXXXXXXXXX...................XXXXXXXXXXXXXXXXX",
"XXXXXXXXXXXXXXXXXXXXXXXXXXXX....................XXXXXXXXXXXXXXXX",
"XXXXXXXXXXXXXX  XXXXXXXXXXXX......................XXXXXXXXXXXXXX",
"XXXXXXXXXXXXX   XXXXXXXXXXXX.......................XXXXXXXXXXXXX",
"XXXXXXXXXXXX    XXXXXXXXXXXX.........................XXXXXXXXXXX",
"XXXXXXXXXX      XXXXXXXXXXXX..........................XXXXXXXXXX",
"XXXXXXXXX       XXXXXXXXXXXX...........................XXXXXXXXX",
"XXXXXXXXX       XXXXXXXXXXXX............................XXXXXXXX",
"XXXXXXXX        XXXXXXXXXXXX.............................XXXXXXX",
"XXXXXXX         XXXXXXXXXXXX.....................X.......XXXXXXX",
"XXXXXX          XXXXXXXXXXXX..................XXXX........XXXXXX",
"XXXXX           XXXXXXXXXXXX...............XXXXXXX.........XXXXX",
"XXXXX           XXXXXXXXXXXX...........XXXXXXXXXXX.........XXXXX",
"XXXX            XXXXXXXXXXXX..........XXXXXXXXXXXX..........XXXX",
"XXXX            XXXXXXXXXXXX..........XXXXXXXXXXXX...........XXX",
"XXX             XXXXXXXXXXXX..........XXXXXXXXXXXX...........XXX",
"XXX             XXXXXXXXXXXX..........XXXXXXXXXXXX............XX",
"XX              XXXXXXXXXXXX..........XXXXXXXXXXXX............XX",
"XX              XXXXXXXXXXXX..........XXXXXXXXXXXX............XX",
"XX              XXXXXXXXXXXX..........XXXXXXXXXXXX.............X",
"X               XXXXXXXXXXXX..........XXXXXXXXXXXX.............X",
"X               XXXXXXXXXXXX..........XXXXXXXXXXXX.............X",
"X               XXXXXXXXXXXX..........XXXXXXXXXXXX.............X",
"X               XXXXXXXXXXXX..........XXXXXXXXXXXX..............",
"X               XXXXXXXXXXXX..........XXXXXXXXXXXX..............",
"                XXXXXXXXXXXX......XXXXXXXXXXXXXXXX..............",
"                XXXXXXXXXXXX..XXXXXXXXXXXXXXXXXXXX..............",
"                XXXXXXXXXXXXXXXXXXXXXXXXXXXXXXXXXX..............",
"                XXXXXXXXXXXXXXXXXXXXXXXXXXXXXXXXXX..............",
"                XXXXXXXXXXXXXXXXXXXXXXXXXXXXXXXXXX..............",
"                XXXXXXXXXXXXXXXXXXXXXXXXXXXXXXXXXX..............",
"                XXXXXXXXXXXXXXXXXXXX  XXXXXXXXXXXX..............",
"                XXXXXXXXXXXXXXXX      XXXXXXXXXXXX..............",
"X               XXXXXXXXXXXX          XXXXXXXXXXXX..............",
"X               XXXXXXXXXXXX          XXXXXXXXXXXX..............",
"X               XXXXXXXXXXXX          XXXXXXXXXXXX.............X",
"X               XXXXXXXXXXXX          XXXXXXXXXXXX.............X",
"X               XXXXXXXXXXXX          XXXXXXXXXXXX.............X",
"XX              XXXXXXXXXXXX          XXXXXXXXXXXX.............X",
"XX              XXXXXXXXXXXX          XXXXXXXXXXXX............XX",
"XX              XXXXXXXXXXXX          XXXXXXXXXXXX............XX",
"XXX             XXXXXXXXXXXX          XXXXXXXXXXXX............XX",
"XXX             XXXXXXXXXXXX          XXXXXXXXXXXX...........XXX",
"XXXX            XXXXXXXXXXXX          XXXXXXXXXXXX...........XXX",
"XXXX            XXXXXXXXXXXX          XXXXXXXXXXXX..........XXXX",
"XXXXX           XXXXXXXXXXXX          XXXXXXXXXXXX..........XXXX",
"XXXXX           XXXXXXXX              XXXXXXXXXXXX.........XXXXX",
"XXXXXX         XXXXX                  XXXXXXXXXXXX........XXXXXX",
"XXXXXXX         X                     XXXXXXXXXXXX........XXXXXX",
"XXXXXXX                               XXXXXXXXXXXX.......XXXXXXX",
"XXXXXXXX                              XXXXXXXXXXXX......XXXXXXXX",
"XXXXXXXXX                             XXXXXXXXXXXX.....XXXXXXXXX",
"XXXXXXXXXX                            XXXXXXXXXXXX....XXXXXXXXXX",
"XXXXXXXXXXX                           XXXXXXXXXXXX...XXXXXXXXXXX",
"XXXXXXXXXXXXX                         XXXXXXXXXXXX..XXXXXXXXXXXX",
"XXXXXXXXXXXXXX                        XXXXXXXXXXXXXXXXXXXXXXXXXX",
"XXXXXXXXXXXXXXXX                      XXXXXXXXXXXXXXXXXXXXXXXXXX",
"XXXXXXXXXXXXXXXXX                     XXXXXXXXXXXXXXXXXXXXXXXXXX",
"XXXXXXXXXXXXXXXXXXX                   XXXXXXXXXXXXXXXXXXXXXXXXXX",
"XXXXXXXXXXXXXXXXXXXXXX                XXXXXXXXXXXXXXXXXXXXXXXXXX",
"XXXXXXXXXXXXXXXXXXXXXXXXXX            XXXXXXXXXXXXXXXXXXXXXXXXXX"
};
