/* XPM */
static char *_520949725005[] = {
/* columns rows colors chars-per-pixel */
"128 128 3 1 ",
"  c #4B5054",
". c #FF1361",
"X c None",
/* pixels */
"XXXXXXXXXXXXXXXXXXXXXXXXXXXXXXXXXXXXXXXXXXXXXXXXXXXXXXXXX...............XXXXXXXXXXXXXXXXXXXXXXXXXXXXXXXXXXXXXXXXXXXXXXXXXXXXXXXX",
"XXXXXXXXXXXXXXXXXXXXXXXXXXXXXXXXXXXXXXXXXXXXXXXXXXXXXXXX......................XXXXXXXXXXXXXXXXXXXXXXXXXXXXXXXXXXXXXXXXXXXXXXXXXX",
"XXXXXXXXXXXXXXXXXXXXXXXXXXXXXXXXXXXXXXXXXXXXXXXXXXXXXXXX..........................XXXXXXXXXXXXXXXXXXXXXXXXXXXXXXXXXXXXXXXXXXXXXX",
"XXXXXXXXXXXXXXXXXXXXXXXXXXXXXXXXXXXXXXXXXXXXXXXXXXXXXXXX.............................XXXXXXXXXXXXXXXXXXXXXXXXXXXXXXXXXXXXXXXXXXX",
"XXXXXXXXXXXXXXXXXXXXXXXXXXXXXXXXXXXXXXXXXXXXXXXXXXXXXXXX................................XXXXXXXXXXXXXXXXXXXXXXXXXXXXXXXXXXXXXXXX",
"XXXXXXXXXXXXXXXXXXXXXXXXXXXXXXXXXXXXXXXXXXXXXXXXXXXXXXXX..................................XXXXXXXXXXXXXXXXXXXXXXXXXXXXXXXXXXXXXX",
"XXXXXXXXXXXXXXXXXXXXXXXXXXXXXXXXXXXXXXXXXXXXXXXXXXXXXXXX....................................XXXXXXXXXXXXXXXXXXXXXXXXXXXXXXXXXXXX",
"XXXXXXXXXXXXXXXXXXXXXXXXXXXXXXXXXXXXXXXXXXXXXXXXXXXXXXXX......................................XXXXXXXXXXXXXXXXXXXXXXXXXXXXXXXXXX",
"XXXXXXXXXXXXXXXXXXXXXXXXXXXXXXXXXXXXXXXXXXXXXXXXXXXXXXXX........................................XXXXXXXXXXXXXXXXXXXXXXXXXXXXXXXX",
"XXXXXXXXXXXXXXXXXXXXXXXXXXXXXXXXXXXXXXXXXXXXXXXXXXXXXXXX..........................................XXXXXXXXXXXXXXXXXXXXXXXXXXXXXX",
"XXXXXXXXXXXXXXXXXXXXXXXXXXXXX  XXXXXXXXXXXXXXXXXXXXXXXXX...........................................XXXXXXXXXXXXXXXXXXXXXXXXXXXXX",
"XXXXXXXXXXXXXXXXXXXXXXXXXXXX   XXXXXXXXXXXXXXXXXXXXXXXXX.............................................XXXXXXXXXXXXXXXXXXXXXXXXXXX",
"XXXXXXXXXXXXXXXXXXXXXXXXXX     XXXXXXXXXXXXXXXXXXXXXXXXX..............................................XXXXXXXXXXXXXXXXXXXXXXXXXX",
"XXXXXXXXXXXXXXXXXXXXXXXXX      XXXXXXXXXXXXXXXXXXXXXXXXX................................................XXXXXXXXXXXXXXXXXXXXXXXX",
"XXXXXXXXXXXXXXXXXXXXXXXX       XXXXXXXXXXXXXXXXXXXXXXXXX.................................................XXXXXXXXXXXXXXXXXXXXXXX",
"XXXXXXXXXXXXXXXXXXXXXXX        XXXXXXXXXXXXXXXXXXXXXXXXX..................................................XXXXXXXXXXXXXXXXXXXXXX",
"XXXXXXXXXXXXXXXXXXXXXX         XXXXXXXXXXXXXXXXXXXXXXXXX...................................................XXXXXXXXXXXXXXXXXXXXX",
"XXXXXXXXXXXXXXXXXXXX           XXXXXXXXXXXXXXXXXXXXXXXXX....................................................XXXXXXXXXXXXXXXXXXXX",
"XXXXXXXXXXXXXXXXXXX            XXXXXXXXXXXXXXXXXXXXXXXXX.....................................................XXXXXXXXXXXXXXXXXXX",
"XXXXXXXXXXXXXXXXXX             XXXXXXXXXXXXXXXXXXXXXXXXX......................................................XXXXXXXXXXXXXXXXXX",
"XXXXXXXXXXXXXXXXX              XXXXXXXXXXXXXXXXXXXXXXXXX.......................................................XXXXXXXXXXXXXXXXX",
"XXXXXXXXXXXXXXXXX              XXXXXXXXXXXXXXXXXXXXXXXXX........................................................XXXXXXXXXXXXXXXX",
"XXXXXXXXXXXXXXXX               XXXXXXXXXXXXXXXXXXXXXXXXX.........................................................XXXXXXXXXXXXXXX",
"XXXXXXXXXXXXXXX                XXXXXXXXXXXXXXXXXXXXXXXXX..........................................................XXXXXXXXXXXXXX",
"XXXXXXXXXXXXXX                 XXXXXXXXXXXXXXXXXXXXXXXXX...........................................X...............XXXXXXXXXXXXX",
"XXXXXXXXXXXXX                  XXXXXXXXXXXXXXXXXXXXXXXXX........................................XXXX...............XXXXXXXXXXXXX",
"XXXXXXXXXXXXX                  XXXXXXXXXXXXXXXXXXXXXXXXX.....................................XXXXXXX................XXXXXXXXXXXX",
"XXXXXXXXXXXX                   XXXXXXXXXXXXXXXXXXXXXXXXX..................................XXXXXXXXXX.................XXXXXXXXXXX",
"XXXXXXXXXXX                    XXXXXXXXXXXXXXXXXXXXXXXXX...............................XXXXXXXXXXXXX.................XXXXXXXXXXX",
"XXXXXXXXXXX                    XXXXXXXXXXXXXXXXXXXXXXXXX............................XXXXXXXXXXXXXXXX..................XXXXXXXXXX",
"XXXXXXXXXX                     XXXXXXXXXXXXXXXXXXXXXXXXX.........................XXXXXXXXXXXXXXXXXXX...................XXXXXXXXX",
"XXXXXXXXX                      XXXXXXXXXXXXXXXXXXXXXXXXX.....................XXXXXXXXXXXXXXXXXXXXXXX...................XXXXXXXXX",
"XXXXXXXXX                      XXXXXXXXXXXXXXXXXXXXXXXXX....................XXXXXXXXXXXXXXXXXXXXXXXX....................XXXXXXXX",
"XXXXXXXX                       XXXXXXXXXXXXXXXXXXXXXXXXX....................XXXXXXXXXXXXXXXXXXXXXXXX....................XXXXXXXX",
"XXXXXXXX                       XXXXXXXXXXXXXXXXXXXXXXXXX....................XXXXXXXXXXXXXXXXXXXXXXXX.....................XXXXXXX",
"XXXXXXX                        XXXXXXXXXXXXXXXXXXXXXXXXX....................XXXXXXXXXXXXXXXXXXXXXXXX.....................XXXXXXX",
"XXXXXXX                        XXXXXXXXXXXXXXXXXXXXXXXXX....................XXXXXXXXXXXXXXXXXXXXXXXX......................XXXXXX",
"XXXXXX                         XXXXXXXXXXXXXXXXXXXXXXXXX....................XXXXXXXXXXXXXXXXXXXXXXXX......................XXXXXX",
"XXXXXX                         XXXXXXXXXXXXXXXXXXXXXXXXX....................XXXXXXXXXXXXXXXXXXXXXXXX.......................XXXXX",
"XXXXX                          XXXXXXXXXXXXXXXXXXXXXXXXX....................XXXXXXXXXXXXXXXXXXXXXXXX.......................XXXXX",
"XXXXX                          XXXXXXXXXXXXXXXXXXXXXXXXX....................XXXXXXXXXXXXXXXXXXXXXXXX........................XXXX",
"XXXXX                          XXXXXXXXXXXXXXXXXXXXXXXXX....................XXXXXXXXXXXXXXXXXXXXXXXX........................XXXX",
"XXXX                           XXXXXXXXXXXXXXXXXXXXXXXXX....................XXXXXXXXXXXXXXXXXXXXXXXX........................XXXX",
"XXXX                           XXXXXXXXXXXXXXXXXXXXXXXXX....................XXXXXXXXXXXXXXXXXXXXXXXX.........................XXX",
"XXX                            XXXXXXXXXXXXXXXXXXXXXXXXX....................XXXXXXXXXXXXXXXXXXXXXXXX.........................XXX",
"XXX                            XXXXXXXXXXXXXXXXXXXXXXXXX....................XXXXXXXXXXXXXXXXXXXXXXXX.........................XXX",
"XXX                            XXXXXXXXXXXXXXXXXXXXXXXXX....................XXXXXXXXXXXXXXXXXXXXXXXX..........................XX",
"XXX                            XXXXXXXXXXXXXXXXXXXXXXXXX....................XXXXXXXXXXXXXXXXXXXXXXXX..........................XX",
"XX                             XXXXXXXXXXXXXXXXXXXXXXXXX....................XXXXXXXXXXXXXXXXXXXXXXXX..........................XX",
"XX                             XXXXXXXXXXXXXXXXXXXXXXXXX....................XXXXXXXXXXXXXXXXXXXXXXXX..........................XX",
"XX                             XXXXXXXXXXXXXXXXXXXXXXXXX....................XXXXXXXXXXXXXXXXXXXXXXXX...........................X",
"XX                             XXXXXXXXXXXXXXXXXXXXXXXXX....................XXXXXXXXXXXXXXXXXXXXXXXX...........................X",
"X                              XXXXXXXXXXXXXXXXXXXXXXXXX....................XXXXXXXXXXXXXXXXXXXXXXXX...........................X",
"X                              XXXXXXXXXXXXXXXXXXXXXXXXX....................XXXXXXXXXXXXXXXXXXXXXXXX...........................X",
"X                              XXXXXXXXXXXXXXXXXXXXXXXXX....................XXXXXXXXXXXXXXXXXXXXXXXX...........................X",
"X                              XXXXXXXXXXXXXXXXXXXXXXXXX..................XXXXXXXXXXXXXXXXXXXXXXXXXX............................",
"X                              XXXXXXXXXXXXXXXXXXXXXXXXX..............XXXXXXXXXXXXXXXXXXXXXXXXXXXXXX............................",
"X                              XXXXXXXXXXXXXXXXXXXXXXXXX..........XXXXXXXXXXXXXXXXXXXXXXXXXXXXXXXXXX............................",
"X                              XXXXXXXXXXXXXXXXXXXXXXXXX......XXXXXXXXXXXXXXXXXXXXXXXXXXXXXXXXXXXXXX............................",
"X                              XXXXXXXXXXXXXXXXXXXXXXXXX...XXXXXXXXXXXXXXXXXXXXXXXXXXXXXXXXXXXXXXXXX............................",
"X                              XXXXXXXXXXXXXXXXXXXXXXXXXXXXXXXXXXXXXXXXXXXXXXXXXXXXXXXXXXXXXXXXXXXXX............................",
"                               XXXXXXXXXXXXXXXXXXXXXXXXXXXXXXXXXXXXXXXXXXXXXXXXXXXXXXXXXXXXXXXXXXXXX............................",
"                               XXXXXXXXXXXXXXXXXXXXXXXXXXXXXXXXXXXXXXXXXXXXXXXXXXXXXXXXXXXXXXXXXXXXX............................",
"                               XXXXXXXXXXXXXXXXXXXXXXXXXXXXXXXXXXXXXXXXXXXXXXXXXXXXXXXXXXXXXXXXXXXXX............................",
"                               XXXXXXXXXXXXXXXXXXXXXXXXXXXXXXXXXXXXXXXXXXXXXXXXXXXXXXXXXXXXXXXXXXXXX............................",
"                               XXXXXXXXXXXXXXXXXXXXXXXXXXXXXXXXXXXXXXXXXXXXXXXXXXXXXXXXXXXXXXXXXXXXX............................",
"                               XXXXXXXXXXXXXXXXXXXXXXXXXXXXXXXXXXXXXXXXXXXXXXXXXXXXXXXXXXXXXXXXXXXXX............................",
"X                              XXXXXXXXXXXXXXXXXXXXXXXXXXXXXXXXXXXXXXXXXXXXXXXXXXXXXXXXXXXXXXXXXXXXX............................",
"X                              XXXXXXXXXXXXXXXXXXXXXXXXXXXXXXXXXXXXXXXXXX   XXXXXXXXXXXXXXXXXXXXXXXX............................",
"X                              XXXXXXXXXXXXXXXXXXXXXXXXXXXXXXXXXXXXXXX      XXXXXXXXXXXXXXXXXXXXXXXX............................",
"X                              XXXXXXXXXXXXXXXXXXXXXXXXXXXXXXXXXXX          XXXXXXXXXXXXXXXXXXXXXXXX............................",
"X                              XXXXXXXXXXXXXXXXXXXXXXXXXXXXXXX              XXXXXXXXXXXXXXXXXXXXXXXX............................",
"X                              XXXXXXXXXXXXXXXXXXXXXXXXXXX                  XXXXXXXXXXXXXXXXXXXXXXXX............................",
"X                              XXXXXXXXXXXXXXXXXXXXXXXXX                    XXXXXXXXXXXXXXXXXXXXXXXX...........................X",
"X                              XXXXXXXXXXXXXXXXXXXXXXXXX                    XXXXXXXXXXXXXXXXXXXXXXXX...........................X",
"X                              XXXXXXXXXXXXXXXXXXXXXXXXX                    XXXXXXXXXXXXXXXXXXXXXXXX...........................X",
"XX                             XXXXXXXXXXXXXXXXXXXXXXXXX                    XXXXXXXXXXXXXXXXXXXXXXXX...........................X",
"XX                             XXXXXXXXXXXXXXXXXXXXXXXXX                    XXXXXXXXXXXXXXXXXXXXXXXX...........................X",
"XX                             XXXXXXXXXXXXXXXXXXXXXXXXX                    XXXXXXXXXXXXXXXXXXXXXXXX...........................X",
"XX                             XXXXXXXXXXXXXXXXXXXXXXXXX                    XXXXXXXXXXXXXXXXXXXXXXXX..........................XX",
"XXX                            XXXXXXXXXXXXXXXXXXXXXXXXX                    XXXXXXXXXXXXXXXXXXXXXXXX..........................XX",
"XXX                            XXXXXXXXXXXXXXXXXXXXXXXXX                    XXXXXXXXXXXXXXXXXXXXXXXX..........................XX",
"XXX                            XXXXXXXXXXXXXXXXXXXXXXXXX                    XXXXXXXXXXXXXXXXXXXXXXXX..........................XX",
"XXX                            XXXXXXXXXXXXXXXXXXXXXXXXX                    XXXXXXXXXXXXXXXXXXXXXXXX.........................XXX",
"XXXX                           XXXXXXXXXXXXXXXXXXXXXXXXX                    XXXXXXXXXXXXXXXXXXXXXXXX.........................XXX",
"XXXX                           XXXXXXXXXXXXXXXXXXXXXXXXX                    XXXXXXXXXXXXXXXXXXXXXXXX.........................XXX",
"XXXX                           XXXXXXXXXXXXXXXXXXXXXXXXX                    XXXXXXXXXXXXXXXXXXXXXXXX........................XXXX",
"XXXXX                          XXXXXXXXXXXXXXXXXXXXXXXXX                    XXXXXXXXXXXXXXXXXXXXXXXX........................XXXX",
"XXXXX                          XXXXXXXXXXXXXXXXXXXXXXXXX                    XXXXXXXXXXXXXXXXXXXXXXXX.......................XXXXX",
"XXXXXX                         XXXXXXXXXXXXXXXXXXXXXXXXX                    XXXXXXXXXXXXXXXXXXXXXXXX.......................XXXXX",
"XXXXXX                         XXXXXXXXXXXXXXXXXXXXXXXXX                    XXXXXXXXXXXXXXXXXXXXXXXX.......................XXXXX",
"XXXXXX                         XXXXXXXXXXXXXXXXXXXXXXXXX                    XXXXXXXXXXXXXXXXXXXXXXXX......................XXXXXX",
"XXXXXXX                        XXXXXXXXXXXXXXXXXXXXXXXXX                    XXXXXXXXXXXXXXXXXXXXXXXX......................XXXXXX",
"XXXXXXX                        XXXXXXXXXXXXXXXXXXXXXXXXX                    XXXXXXXXXXXXXXXXXXXXXXXX.....................XXXXXXX",
"XXXXXXXX                       XXXXXXXXXXXXXXXXXXXXXXXXX                    XXXXXXXXXXXXXXXXXXXXXXXX.....................XXXXXXX",
"XXXXXXXXX                      XXXXXXXXXXXXXXXXXXXXXXXXX                    XXXXXXXXXXXXXXXXXXXXXXXX....................XXXXXXXX",
"XXXXXXXXX                      XXXXXXXXXXXXXXXXXXXXXXXXX                    XXXXXXXXXXXXXXXXXXXXXXXX...................XXXXXXXXX",
"XXXXXXXXXX                     XXXXXXXXXXXXXXXXXXXXXXX                      XXXXXXXXXXXXXXXXXXXXXXXX...................XXXXXXXXX",
"XXXXXXXXXX                     XXXXXXXXXXXXXXXXXXX                          XXXXXXXXXXXXXXXXXXXXXXXX..................XXXXXXXXXX",
"XXXXXXXXXXX                    XXXXXXXXXXXXXXXX                             XXXXXXXXXXXXXXXXXXXXXXXX..................XXXXXXXXXX",
"XXXXXXXXXXXX                   XXXXXXXXXXXX                                 XXXXXXXXXXXXXXXXXXXXXXXX.................XXXXXXXXXXX",
"XXXXXXXXXXXX                   XXXXXXXX                                     XXXXXXXXXXXXXXXXXXXXXXXX................XXXXXXXXXXXX",
"XXXXXXXXXXXXX                  XXXX                                         XXXXXXXXXXXXXXXXXXXXXXXX...............XXXXXXXXXXXXX",
"XXXXXXXXXXXXXX                                                              XXXXXXXXXXXXXXXXXXXXXXXX...............XXXXXXXXXXXXX",
"XXXXXXXXXXXXXXX                                                             XXXXXXXXXXXXXXXXXXXXXXXX..............XXXXXXXXXXXXXX",
"XXXXXXXXXXXXXXX                                                             XXXXXXXXXXXXXXXXXXXXXXXX.............XXXXXXXXXXXXXXX",
"XXXXXXXXXXXXXXXX                                                            XXXXXXXXXXXXXXXXXXXXXXXX............XXXXXXXXXXXXXXXX",
"XXXXXXXXXXXXXXXXX                                                           XXXXXXXXXXXXXXXXXXXXXXXX...........XXXXXXXXXXXXXXXXX",
"XXXXXXXXXXXXXXXXXX                                                          XXXXXXXXXXXXXXXXXXXXXXXX...........XXXXXXXXXXXXXXXXX",
"XXXXXXXXXXXXXXXXXXX                                                         XXXXXXXXXXXXXXXXXXXXXXXX..........XXXXXXXXXXXXXXXXXX",
"XXXXXXXXXXXXXXXXXXXX                                                        XXXXXXXXXXXXXXXXXXXXXXXX.........XXXXXXXXXXXXXXXXXXX",
"XXXXXXXXXXXXXXXXXXXXX                                                       XXXXXXXXXXXXXXXXXXXXXXXX.......XXXXXXXXXXXXXXXXXXXXX",
"XXXXXXXXXXXXXXXXXXXXXX                                                      XXXXXXXXXXXXXXXXXXXXXXXX......XXXXXXXXXXXXXXXXXXXXXX",
"XXXXXXXXXXXXXXXXXXXXXXX                                                     XXXXXXXXXXXXXXXXXXXXXXXX.....XXXXXXXXXXXXXXXXXXXXXXX",
"XXXXXXXXXXXXXXXXXXXXXXXXX                                                   XXXXXXXXXXXXXXXXXXXXXXXX....XXXXXXXXXXXXXXXXXXXXXXXX",
"XXXXXXXXXXXXXXXXXXXXXXXXXX                                                  XXXXXXXXXXXXXXXXXXXXXXXX...XXXXXXXXXXXXXXXXXXXXXXXXX",
"XXXXXXXXXXXXXXXXXXXXXXXXXXX                                                 XXXXXXXXXXXXXXXXXXXXXXXX..XXXXXXXXXXXXXXXXXXXXXXXXXX",
"XXXXXXXXXXXXXXXXXXXXXXXXXXXXX                                               XXXXXXXXXXXXXXXXXXXXXXXXXXXXXXXXXXXXXXXXXXXXXXXXXXXX",
"XXXXXXXXXXXXXXXXXXXXXXXXXXXXXX                                              XXXXXXXXXXXXXXXXXXXXXXXXXXXXXXXXXXXXXXXXXXXXXXXXXXXX",
"XXXXXXXXXXXXXXXXXXXXXXXXXXXXXXXX                                            XXXXXXXXXXXXXXXXXXXXXXXXXXXXXXXXXXXXXXXXXXXXXXXXXXXX",
"XXXXXXXXXXXXXXXXXXXXXXXXXXXXXXXXXX                                          XXXXXXXXXXXXXXXXXXXXXXXXXXXXXXXXXXXXXXXXXXXXXXXXXXXX",
"XXXXXXXXXXXXXXXXXXXXXXXXXXXXXXXXXXX                                         XXXXXXXXXXXXXXXXXXXXXXXXXXXXXXXXXXXXXXXXXXXXXXXXXXXX",
"XXXXXXXXXXXXXXXXXXXXXXXXXXXXXXXXXXXXXX                                      XXXXXXXXXXXXXXXXXXXXXXXXXXXXXXXXXXXXXXXXXXXXXXXXXXXX",
"XXXXXXXXXXXXXXXXXXXXXXXXXXXXXXXXXXXXXXXX                                    XXXXXXXXXXXXXXXXXXXXXXXXXXXXXXXXXXXXXXXXXXXXXXXXXXXX",
"XXXXXXXXXXXXXXXXXXXXXXXXXXXXXXXXXXXXXXXXXX                                  XXXXXXXXXXXXXXXXXXXXXXXXXXXXXXXXXXXXXXXXXXXXXXXXXXXX",
"XXXXXXXXXXXXXXXXXXXXXXXXXXXXXXXXXXXXXXXXXXXXX                               XXXXXXXXXXXXXXXXXXXXXXXXXXXXXXXXXXXXXXXXXXXXXXXXXXXX",
"XXXXXXXXXXXXXXXXXXXXXXXXXXXXXXXXXXXXXXXXXXXXXXXXX                           XXXXXXXXXXXXXXXXXXXXXXXXXXXXXXXXXXXXXXXXXXXXXXXXXXXX",
"XXXXXXXXXXXXXXXXXXXXXXXXXXXXXXXXXXXXXXXXXXXXXXXXXXXXXX                     XXXXXXXXXXXXXXXXXXXXXXXXXXXXXXXXXXXXXXXXXXXXXXXXXXXXX"
};
