/* XPM */
static char *_520949704518[] = {
/* columns rows colors chars-per-pixel */
"16 16 11 1 ",
"  c #3D5553",
". c #3E5553",
"X c #335952",
"o c #415353",
"O c #4A5054",
"+ c #4B5054",
"@ c #FF0D62",
"# c #FF0E62",
"$ c #FF1261",
"% c #FF1361",
"& c None",
/* pixels */
"&&&&&&&%%%%&&&&&",
"&&&&&&&%%%%%%&&&",
"&&++&&&%%%%%%%&&",
"&+++&&&%%%%&%%%&",
"&+++&&&%%&&&&%%&",
"++++&&&$%&&&&%%%",
"++++&&&$#&&&&%%%",
"++++&&&&&&&&&%%%",
"++++&&&&&&&&&%%%",
"++++&&&Xo &&&$%%",
"++++&&&++&&&&%%%",
"&+++&&&++&&&&%%&",
"&+++&&+++&&&&%%&",
"&&+++++++&&&#%&&",
"&&&++++++ &&&&&&",
"&&&&&++++&&&&&&&"
};
