/* XPM */
static char *_520949714254[] = {
/* columns rows colors chars-per-pixel */
"32 32 6 1 ",
"  c #495154",
". c #4B5054",
"X c #4C5054",
"o c #FF1261",
"O c #FF1361",
"+ c None",
/* pixels */
"++++++++++++++OOOOOO++++++++++++",
"++++++++++++++OOOOOOOOO+++++++++",
"++++++++++++++OOOOOOOOOOO+++++++",
"++++++..++++++OOOOOOOOOOOO++++++",
"+++++...++++++OOOOOOOOOOOOO+++++",
"++++....++++++OOOOOOOOOOOOOO++++",
"+++.....++++++OOOOOOOOOO+OOOO+++",
"+++.....++++++OOOOOOO++++OOOOO++",
"++......++++++OOOOO++++++OOOOO++",
"+.......++++++OOOOO++++++OOOOOO+",
"+.......++++++OOOOO++++++OOOOOO+",
"+.......++++++OOOOO++++++OOOOOO+",
"........++++++OOOOO++++++OOOOOOO",
"........++++++OOOOO++++++OOOOOOO",
"........++++++OO+++++++++OOOOOOO",
"........+++++++++++++++++OOOOOOO",
"........+++++++++++++++++OOOOOOO",
"........+++++++++.X++++++OOOOOOO",
"........++++++.....++++++OOOOOOO",
"........++++++.....++++++OOOOOOO",
"+.......++++++.....++++++OOOOOO+",
"+.......++++++.....++++++OOOOOO+",
"+.......++++++.....++++++OOOOOO+",
"++......++++++.....++++++OOOOO++",
"+++.....+++++......++++++OOOOO++",
"+++.....+..........++++++OOOO+++",
"++++...............++++++OOO++++",
"+++++..............++++++OO+++++",
"++++++.............++++++O++++++",
"+++++++............+++++++++++++",
"+++++++++..........+++++++++++++",
"++++++++++++.......+++++++++++++"
};
